<svg width="12" height="13" viewBox="0 0 12 13" fill="none" xmlns="http://www.w3.org/2000/svg">
<path d="M11.1492 4.50068L8.87788 3.93336C8.59707 3.86226 8.35399 3.68785 8.19808 3.44553L6.95189 1.47774C6.85212 1.31624 6.7119 1.18313 6.54483 1.09139C6.37776 0.999654 6.18956 0.952415 5.99861 0.954277C5.80812 0.952889 5.62054 1.00035 5.454 1.09207C5.28746 1.18379 5.14762 1.31664 5.04809 1.47774L3.79913 3.44553C3.64492 3.68826 3.40257 3.86291 3.12216 3.93336L0.850841 4.50068C0.666078 4.54668 0.496099 4.63848 0.356896 4.76746C0.217694 4.89644 0.113841 5.05838 0.0550113 5.23809C-0.00381802 5.4178 -0.0157177 5.60937 0.0205391 5.79486C0.0567959 5.98035 0.139974 6.15367 0.26225 6.29855L1.7627 8.08271C1.94821 8.303 2.04119 8.5856 2.02243 8.87202L1.86491 11.1906C1.85471 11.3431 1.87612 11.496 1.92785 11.64C1.97957 11.7839 2.06051 11.9159 2.16564 12.0276C2.27077 12.1393 2.39788 12.2285 2.5391 12.2896C2.68033 12.3506 2.83269 12.3824 2.98677 12.3828C3.13056 12.3827 3.27306 12.3558 3.40678 12.3033L5.58136 11.4373C5.71429 11.3854 5.85577 11.3585 5.99861 11.3578C6.14237 11.3582 6.2848 11.3851 6.41861 11.4373L8.59327 12.3033C8.72699 12.3558 8.86948 12.3827 9.01328 12.3828C9.16735 12.3824 9.31965 12.3506 9.46087 12.2896C9.6021 12.2285 9.72921 12.1393 9.83434 12.0276C9.93946 11.9159 10.0204 11.7839 10.0721 11.64C10.1239 11.496 10.1453 11.3431 10.1351 11.1906L9.97762 8.87202C9.95886 8.5856 10.0518 8.303 10.2373 8.08271L11.7377 6.29855C11.86 6.15367 11.9432 5.98035 11.9794 5.79486C12.0157 5.60937 12.0039 5.4178 11.945 5.23809C11.8862 5.05838 11.7823 4.89644 11.6431 4.76746C11.5039 4.63848 11.334 4.54668 11.1492 4.50068Z" fill="#F2994A"/>
</svg>
